# xmcd
#
# Track frame offsets:
#	150
#	13392
#	23619
#	39177
#	48347
#	58595
#	72877
#	82800
#	94607
#	107327
#
# Disc length: 1572 seconds
#
# Revision: 0
# Processed by: cddbd v1.5.1PL0 Copyright (c) Steve Scherf et al.
# Submitted via: dBpowerAMP V4.0
#
DISCID=6b06220a
DTITLE=Alverto Vazquez - Con Banda La Costeña
DYEAR=1900
DGENRE=Banda
TTITLE0=Que suerte la mia
TTITLE1=El capiro
TTITLE2=Vamonos
TTITLE3=Dos pasajes
TTITLE4=Chatita
TTITLE5=Las mañanitas
TTITLE6=La traicionera
TTITLE7=La que se fue
TTITLE8=El muchacho alegre
TTITLE9=El ausente
EXTD=
EXTT0=
EXTT1=
EXTT2=
EXTT3=
EXTT4=
EXTT5=
EXTT6=
EXTT7=
EXTT8=
EXTT9=
PLAYORDER=
